<svg xmlns="http://www.w3.org/2000/svg" viewBox="0 0 30 16"><path d="M0,0H30V5.33H0Z" style="fill:#f93"/><path d="M0,5.33H30v5.34H0Z" style="fill:#fff"/><path d="M0,10.67H30V16H0Z" style="fill:#128807"/><circle cx="15" cy="8" r="2.13" style="fill:#008"/><circle cx="15" cy="8" r="1.87" style="fill:#fff"/><circle cx="15" cy="8" r="0.37" style="fill:#008"/><path d="M16.86,8.15a.08.08,0,0,0-.1.08c0,.06,0,.09.11.09A.16.16,0,0,0,17,8.26.11.11,0,0,0,16.86,8.15Z" style="fill:#008"/><polygon points="14.94 8.75 15 9.87 15.06 8.75 15 8.21 14.94 8.75" style="fill:#008"/><path d="M16.76,8.63a.09.09,0,0,0-.13,0,.1.1,0,0,0,.05.13.1.1,0,0,0,.13-.05h0A.09.09,0,0,0,16.76,8.63Z" style="fill:#008"/><polygon points="14.74 8.71 14.52 9.8 14.87 8.74 14.95 8.21 14.74 8.71" style="fill:#008"/><path d="M16.54,9.06a.11.11,0,0,0-.14,0,.1.1,0,1,0,.15.13h0A.09.09,0,0,0,16.54,9.06Z" style="fill:#008"/><polygon points="14.89 8.19 14.57 8.62 14.07 9.62 14.68 8.68 14.89 8.19" style="fill:#008"/><path d="M16.08,9.4a.09.09,0,0,0,0,.14.07.07,0,0,0,.09,0,.1.1,0,0,0,.06-.13.1.1,0,0,0-.13-.05S16.09,9.39,16.08,9.4Z" style="fill:#008"/><polygon points="14.85 8.15 14.43 8.48 13.68 9.32 14.52 8.57 14.85 8.15" style="fill:#008"/><path d="M15.68,9.64a.1.1,0,0,0-.06.12.1.1,0,0,0,.13.06.1.1,0,0,0,.06-.13.1.1,0,0,0-.13-.06Z" style="fill:#008"/><polygon points="14.81 8.11 14.32 8.32 13.38 8.93 14.38 8.43 14.81 8.11" style="fill:#008"/><circle cx="15.24" cy="9.85" r="0.1" style="fill:#008"/><polygon points="14.29 8.26 14.79 8.05 14.26 8.13 13.2 8.48 14.29 8.26" style="fill:#008"/><path d="M14.77,9.76c-.06,0-.09.05-.09.11a.16.16,0,0,0,.06.08.1.1,0,0,0,.09-.12A.11.11,0,0,0,14.77,9.76Z" style="fill:#008"/><polygon points="14.25 7.94 13.13 8 14.25 8.06 14.79 8 14.25 7.94" style="fill:#008"/><path d="M14.32,9.64a.09.09,0,0,0-.13,0,.11.11,0,0,0,.05.14.1.1,0,0,0,.13-.05h0A.09.09,0,0,0,14.32,9.64Z" style="fill:#008"/><polygon points="14.29 7.75 13.2 7.52 14.26 7.87 14.79 7.95 14.29 7.75" style="fill:#008"/><path d="M13.92,9.4a.1.1,0,0,0-.13.06.08.08,0,0,0,0,.09.09.09,0,0,0,.11-.15Z" style="fill:#008"/><polygon points="14.81 7.89 14.38 7.57 13.38 7.07 14.32 7.68 14.81 7.89" style="fill:#008"/><path d="M13.46,9.06a.09.09,0,0,0,0,.13.09.09,0,0,0,.14,0,.1.1,0,0,0,0-.09A.11.11,0,0,0,13.46,9.06Z" style="fill:#008"/><polygon points="14.85 7.85 14.52 7.43 13.68 6.68 14.43 7.52 14.85 7.85" style="fill:#008"/><path d="M13.24,8.62a.1.1,0,0,0-.06.13.1.1,0,0,0,.13.06.1.1,0,0,0,.06-.13h0A.1.1,0,0,0,13.24,8.62Z" style="fill:#008"/><polygon points="14.89 7.82 14.68 7.32 14.07 6.38 14.57 7.38 14.89 7.82" style="fill:#008"/><circle cx="13.15" cy="8.24" r="0.1" style="fill:#008"/><polygon points="14.95 7.79 14.87 7.26 14.52 6.2 14.74 7.29 14.95 7.79" style="fill:#008"/><path d="M13.14,7.85a.08.08,0,0,0,.1-.08c0-.06-.05-.09-.11-.09a.16.16,0,0,0-.08.06A.11.11,0,0,0,13.14,7.85Z" style="fill:#008"/><polygon points="15.06 7.25 15 6.13 14.94 7.25 15 7.79 15.06 7.25" style="fill:#008"/><path d="M13.24,7.37a.09.09,0,0,0,.13,0,.1.1,0,0,0,0-.13.1.1,0,0,0-.13,0h0A.09.09,0,0,0,13.24,7.37Z" style="fill:#008"/><polygon points="15.26 7.29 15.48 6.2 15.13 7.26 15.05 7.79 15.26 7.29" style="fill:#008"/><path d="M13.46,6.94a.11.11,0,0,0,.14,0,.1.1,0,0,0-.15-.13h0A.09.09,0,0,0,13.46,6.94Z" style="fill:#008"/><polygon points="15.11 7.82 15.43 7.38 15.93 6.38 15.32 7.32 15.11 7.82" style="fill:#008"/><path d="M13.92,6.6a.09.09,0,0,0,0-.14.07.07,0,0,0-.09,0,.09.09,0,0,0,0,.14A.09.09,0,0,0,13.92,6.6Z" style="fill:#008"/><polygon points="15.15 7.85 15.57 7.52 16.32 6.68 15.48 7.43 15.15 7.85" style="fill:#008"/><path d="M14.32,6.36a.1.1,0,0,0,.06-.12.1.1,0,0,0-.13-.06.1.1,0,0,0-.06.13.1.1,0,0,0,.13.06Z" style="fill:#008"/><polygon points="15.19 7.89 15.68 7.68 16.62 7.07 15.62 7.57 15.19 7.89" style="fill:#008"/><circle cx="14.76" cy="6.15" r="0.1" style="fill:#008"/><polygon points="16.8 7.52 15.71 7.75 15.21 7.95 15.74 7.87 16.8 7.52" style="fill:#008"/><path d="M15.23,6.24c.06,0,.09,0,.09-.11a.16.16,0,0,0-.06-.08.1.1,0,0,0-.09.12A.11.11,0,0,0,15.23,6.24Z" style="fill:#008"/><polygon points="15.75 7.94 15.21 8 15.75 8.06 16.87 8 15.75 7.94" style="fill:#008"/><path d="M15.68,6.36a.09.09,0,0,0,.13,0,.11.11,0,0,0-.05-.14.1.1,0,0,0-.13.05h0A.09.09,0,0,0,15.68,6.36Z" style="fill:#008"/><polygon points="15.71 8.26 16.8 8.48 15.74 8.13 15.21 8.05 15.71 8.26" style="fill:#008"/><path d="M16.08,6.6a.1.1,0,0,0,.13-.06.08.08,0,0,0,0-.09.09.09,0,1,0-.11.15Z" style="fill:#008"/><polygon points="15.19 8.11 15.62 8.43 16.62 8.93 15.68 8.32 15.19 8.11" style="fill:#008"/><path d="M16.54,6.94a.09.09,0,0,0,0-.13.09.09,0,0,0-.14,0,.07.07,0,0,0,0,.09A.09.09,0,0,0,16.54,6.94Z" style="fill:#008"/><polygon points="15.15 8.15 15.48 8.57 16.32 9.32 15.57 8.48 15.15 8.15" style="fill:#008"/><path d="M16.76,7.38a.1.1,0,0,0,.06-.13.1.1,0,0,0-.13-.06.1.1,0,0,0-.06.13h0A.1.1,0,0,0,16.76,7.38Z" style="fill:#008"/><polygon points="15.11 8.19 15.32 8.68 15.93 9.62 15.43 8.62 15.11 8.19" style="fill:#008"/><circle cx="16.85" cy="7.76" r="0.1" style="fill:#008"/><polygon points="15.05 8.21 15.13 8.74 15.48 9.8 15.26 8.71 15.05 8.21" style="fill:#008"/></svg>
